<?xml version="1.0" standalone="no"?>
<!DOCTYPE svg PUBLIC "-//W3C//DTD SVG 1.1//EN" "http://www.w3.org/Graphics/SVG/1.1/DTD/svg11.dtd" >
<svg xmlns="http://www.w3.org/2000/svg">
  <metadata>Created by iconfont</metadata>
  <defs>
  <font id="iconfont" horiz-adv-x="1024">
    <font-face
      font-family="iconfont"
      font-weight="400"
      font-stretch="normal"
      units-per-em="1024"
      ascent="896"
      descent="-128"
    />
      <missing-glyph />
      
      <glyph glyph-name="json" unicode="&#59325;" d="M213.333333 768h85.333334v-85.333333H213.333333v-213.333334a85.333333 85.333333 0 0 0-85.333333-85.333333 85.333333 85.333333 0 0 0 85.333333-85.333333v-213.333334h85.333334v-85.333333H213.333333c-45.653333 11.52-85.333333 38.4-85.333333 85.333333v170.666667a85.333333 85.333333 0 0 1-85.333333 85.333333H0v85.333334h42.666667a85.333333 85.333333 0 0 1 85.333333 85.333333V682.666667a85.333333 85.333333 0 0 0 85.333333 85.333333m597.333334 0a85.333333 85.333333 0 0 0 85.333333-85.333333v-170.666667a85.333333 85.333333 0 0 1 85.333333-85.333333h42.666667v-85.333334h-42.666667a85.333333 85.333333 0 0 1-85.333333-85.333333v-170.666667a85.333333 85.333333 0 0 0-85.333333-85.333333h-85.333334v85.333333h85.333334v213.333334a85.333333 85.333333 0 0 0 85.333333 85.333333 85.333333 85.333333 0 0 0-85.333333 85.333333V682.666667h-85.333334V768h85.333334m-298.666667-512a42.666667 42.666667 0 0 0 42.666667-42.666667 42.666667 42.666667 0 0 0-42.666667-42.666666 42.666667 42.666667 0 0 0-42.666667 42.666666 42.666667 42.666667 0 0 0 42.666667 42.666667m-170.666667 0a42.666667 42.666667 0 0 0 42.666667-42.666667 42.666667 42.666667 0 0 0-42.666667-42.666666 42.666667 42.666667 0 0 0-42.666666 42.666666 42.666667 42.666667 0 0 0 42.666666 42.666667m341.333334 0a42.666667 42.666667 0 0 0 42.666666-42.666667 42.666667 42.666667 0 0 0-42.666666-42.666666 42.666667 42.666667 0 0 0-42.666667 42.666666 42.666667 42.666667 0 0 0 42.666667 42.666667z"  horiz-adv-x="1024" />
      
      <glyph glyph-name="less" unicode="&#61926;" d="M1225.4 458c0 41 6.4 65.2 6.4 109.2 0 68.4-25.2 90.4-81 90.4h-41v-48.4h12.6c28.4 0 34.6-9.4 34.6-44.2 0-32.6-3.2-65.2-3.2-103 0-48.4 15.8-67.2 47.2-74.6v-3.2c-31.6-7.4-47.2-26.2-47.2-74.6 0-37.8 3.2-68.4 3.2-103 0-35.8-7.4-45.2-34.6-45.2v-1h-12.6V110h41c55.6 0 81 22 81 90.4 0 45.2-6.4 68.4-6.4 109.2 0 22 13.6 45.2 54.6 47.2v54.6c-41 1.4-54.6 24.6-54.6 46.6z m-211.2-64c-31.6 12.6-61 20-61 41 0 15.8 12.6 25.2 35.8 25.2s44.2-9.4 67.2-26.2l42 55.6c-26.2 20-62 41-110.4 41-71.4 0-119.8-41-119.8-98.8 0-51.4 45.2-77.8 83-92.4 32.6-12.6 64.2-23.2 64.2-44.2 0-15.8-12.6-26.2-41-26.2-26.2 0-52.6 10.6-81 32.6l-42-61c31.6-26.2 79.8-44.2 119.8-44.2 84 0 129.2 44.2 129.2 102s-45 82-86 95.6z m-717.8-118.8c-7.4 0-16.8 6.4-16.8 26.2V657.8H130.4c-56.8 0-82-22-82-90.4 0-45.2 6.4-70.4 6.4-109.2 0-22-13.6-45.2-54.6-47.2v-54.6c41-1 54.6-24.2 54.6-46.2 0-38.8-6.4-62-6.4-107.2 0-68.4 25.2-90.4 81-90.4h41v48.4h-12.6c-26.2 0-34.6 10.6-34.6 45.2s3.2 64.2 3.2 103c0 48.4-15.8 67.2-47.2 74.6v3.2c31.6 7.4 47.2 26.2 47.2 74.6 0 37.8-3.2 68.4-3.2 103s7.4 44.2 34.6 44.2H186v-301.6c0-64.2 22-106.2 86.2-106.2 20 0 35.8 3.2 47.2 7.4l-10.6 68.4c-6.2-1.6-9.2-1.6-12.4-1.6zM759.8 394c-32.6 12.6-62 20-62 41 0 15.8 12.6 25.2 35.8 25.2 23.2 0 44.2-9.4 67.2-26.2l42 55.6c-26.2 20-62 41-110.4 41-71.4 0-119.8-41-119.8-98.8 0-51.4 45.2-77.8 83-92.4 32.6-12.6 64.2-23.2 64.2-44.2 0-15.8-12.6-26.2-41-26.2-26.2 0-52.6 10.6-81 32.6l-41-61c31.6-26.2 79.8-44.2 119.8-44.2 84 0 129.2 44.2 129.2 102 0.2 57.8-45 82-86 95.6z m-310 137.6c-76.8 0-150.2-64.2-148.2-165 0-104 68.4-165 158.6-165 37.8 0 79.8 13.6 112.4 35.8l-31.6 55.6c-23.2-13.6-45.2-20-68.4-20-42 0-74.6 20-83 68.4H580c1 7.4 3.2 22 3.2 38.8 1.2 85.2-45.2 151.4-133.4 151.4z m-60-132.4c6.4 42 31.6 62 61 62 37.8 0 52.6-26.2 52.6-62h-113.6z"  horiz-adv-x="1280" />
      
      <glyph glyph-name="debug" unicode="&#59245;" d="M512 832C403.2 832 320 748.8 320 640h384c0 108.8-83.2 192-192 192zM243.2 569.6L134.4 678.4l-44.8-44.8 108.8-108.8c-6.4 0-6.4-6.4-6.4-12.8v-128H64v-64h128v-6.4c0-38.4 6.4-83.2 19.2-115.2l-121.6-121.6 44.8-44.8 108.8 108.8c51.2-83.2 134.4-140.8 236.8-147.2V576H256c-6.4 0-12.8 0-12.8-6.4zM832 320h128V384h-128V512c0 6.4 0 12.8-6.4 19.2L934.4 640l-44.8 44.8L780.8 576H544v-588.8c102.4 12.8 185.6 70.4 236.8 147.2l108.8-108.8 44.8 44.8-121.6 121.6c12.8 38.4 19.2 76.8 19.2 115.2V320z"  horiz-adv-x="1024" />
      
      <glyph glyph-name="css" unicode="&#58904;" d="M212.992 369.664L212.992 369.664 212.992 369.664 215.04 369.664 212.992 369.664ZM784.384 695.296L239.616 695.296c-90.112 0-163.84-73.728-163.84-163.84l0-327.68c0-90.112 73.728-163.84 163.84-163.84l544.768 0c90.112 0 163.84 73.728 163.84 163.84l0 327.68C948.224 621.568 874.496 695.296 784.384 695.296zM380.928 304.12800000000004c16.384 0 32.768 4.096 43.008 8.192l6.144-28.672c-10.24-4.096-28.672-10.24-55.296-10.24-65.536 0-108.544 43.008-108.544 116.736 0 79.872 49.152 122.88 114.688 122.88 26.624 0 43.008-6.144 49.152-8.192l-8.192-28.672c-10.24 4.096-22.528 8.192-40.96 8.192-45.056 0-77.824-30.72-77.824-90.112C303.104 336.89599999999996 333.824 304.12800000000004 380.928 304.12800000000004zM509.952 273.408c-22.528 0-45.056 6.144-55.296 14.336l8.192 28.672c12.288-8.192 30.72-14.336 51.2-14.336 28.672 0 43.008 14.336 43.008 34.816 0 20.48-12.288 32.768-38.912 43.008-34.816 14.336-57.344 34.816-57.344 67.584 0 36.864 28.672 65.536 75.776 65.536 22.528 0 38.912-6.144 49.152-10.24L573.44 474.112c-8.192 4.096-22.528 10.24-40.96 10.24-28.672 0-38.912-16.384-38.912-30.72 0-20.48 12.288-28.672 43.008-43.008 36.864-16.384 55.296-36.864 55.296-69.632C591.872 304.12800000000004 561.152 273.408 509.952 273.408zM673.792 273.408c-22.528 0-45.056 6.144-57.344 14.336l8.192 28.672c12.288-8.192 30.72-14.336 51.2-14.336 28.672 0 43.008 14.336 43.008 34.816 0 20.48-12.288 32.768-38.912 43.008-34.816 14.336-57.344 34.816-57.344 67.584 0 36.864 28.672 65.536 75.776 65.536 22.528 0 38.912-6.144 49.152-10.24L737.28 474.112c-8.192 4.096-22.528 10.24-40.96 10.24-28.672 0-38.912-16.384-38.912-30.72 0-20.48 12.288-28.672 43.008-43.008 36.864-16.384 55.296-36.864 55.296-69.632C755.712 304.12800000000004 727.04 273.408 673.792 273.408z"  horiz-adv-x="1024" />
      
      <glyph glyph-name="html" unicode="&#58905;" d="M212.992 369.664L212.992 369.664 212.992 369.664 215.04 369.664 212.992 369.664ZM784.384 709.6320000000001L239.616 709.6320000000001c-90.112 0-163.84-73.728-163.84-163.84l0-327.68c0-90.112 73.728-163.84 163.84-163.84l544.768 0c90.112 0 163.84 73.728 163.84 163.84l0 327.68C948.224 635.904 874.496 709.6320000000001 784.384 709.6320000000001zM301.056 289.79200000000003L266.24 289.79200000000003l0 106.496L172.032 396.288l0-106.496L135.168 289.79200000000003 135.168 523.264l34.816 0 0-96.256L266.24 427.008l0 96.256 34.816 0L301.056 289.79200000000003zM487.424 492.544l-63.488 0 0-202.752L389.12 289.79200000000003l0 202.752L327.68 492.544l0 30.72 161.792 0L489.472 492.544zM702.464 289.79200000000003l-6.144 98.304c-2.048 30.72-4.096 67.584-2.048 96.256l0 0c-6.144-26.624-16.384-57.344-26.624-86.016l-34.816-106.496-26.624 0-32.768 104.448c-10.24 30.72-18.432 61.44-22.528 88.064l0 0c0-28.672-2.048-65.536-4.096-98.304l-6.144-96.256-32.768 0 16.384 233.472 43.008 0 32.768-102.4c8.192-28.672 16.384-55.296 20.48-79.872l0 0c6.144 24.576 12.288 51.2 22.528 79.872l32.768 102.4 45.056 0L737.28 289.79200000000003 702.464 289.79200000000003zM905.216 289.79200000000003l-124.928 0L780.288 523.264l34.816 0 0-202.752 90.112 0L905.216 289.79200000000003z"  horiz-adv-x="1024" />
      
      <glyph glyph-name="vue" unicode="&#59290;" d="M615.6 772.4h165.5L512 306.29999999999995 242.9 772.4H63.5L512-4.399999999999977l448.5 776.9zM781.1 772.4H615.6L512 593 408.4 772.4H242.9L512 306.29999999999995z"  horiz-adv-x="1024" />
      
      <glyph glyph-name="typescript" unicode="&#59043;" d="M94.208 801.792v-835.584h835.584V801.792H94.208z m634.92096-405.85216v-0.012288c8.011776-0.024576 17.119232-0.436224 23.967744-1.179648 27.891712-3.016704 49.6128-15.050752 68.091904-37.715968 9.201664-11.290624 12.34944-16.2304 11.679744-18.343936-0.432128-1.363968-6.746112-5.885952-26.820608-19.21024-19.720192-13.092864-26.07104-17.014784-27.5456-17.014784-1.497088 0-4.614144 3.207168-9.105408 9.365504-8.6528 11.855872-17.485824 17.266688-31.13984 19.070976-14.68416 1.9456-27.856896-2.68288-34.308096-12.058624-5.515264-8.011776-6.3488-20.901888-1.96608-30.26944 5.07904-10.848256 14.270464-16.846848 49.494016-32.290816 40.624128-17.813504 61.210624-30.005248 76.204032-45.13792 16.146432-16.293888 24.326144-35.106816 26.83904-61.718528 1.226752-12.972032-0.272384-28.34432-3.98336-40.843264-9.10336-30.640128-33.66912-53.075968-69.67296-63.635456-9.95328-2.9184-19.214336-4.661248-28.37504-5.332992-13.985792-1.030144-34.002944-0.462848-46.051328 1.29024-30.482432 4.442112-64.892928 22.17984-82.051072 42.2912-8.423424 9.873408-19.177472 26.12224-19.177472 28.9792 0 1.380352 0.684032 2.164736 3.391488 3.885056 8.032256 5.103616 54.054912 31.412224 54.94784 31.412224 0.540672 0 2.945024-2.832384 5.341184-6.295552 5.429248-7.839744 18.78016-21.313536 25.567232-25.808896 5.543936-3.672064 12.634112-6.619136 21.051392-8.747008 4.820992-1.202176 7.3728-1.417216 17.891328-1.417216 10.747904 0.004096 12.951552 0.18432 17.760256 1.476608 12.71808 3.422208 22.644736 10.50624 26.851328 19.156992 1.8432 3.7376 1.880064 4.204544 1.880064 13.27104v9.40032l-2.260992 4.48512c-5.474304 10.866688-17.270784 18.323456-54.56896 34.47808-17.13152 7.421952-38.11328 17.885184-46.30528 23.0912-18.696192 11.880448-31.653888 25.462784-40.157184 42.088448-8.45824 16.533504-9.71776 22.687744-9.73824 47.548416-0.02048 19.462144-0.053248 19.222528 3.975168 31.643648 3.65568 11.272192 11.139072 23.863296 19.400704 32.64512 16.4864 17.524736 40.577024 28.788736 66.367488 31.029248 3.29728 0.313344 7.716864 0.434176 12.52352 0.41984z m-221.92128-3.844096h0.008192c49.670144-0.024576 78.143488-0.196608 78.600192-0.483328 0.86016-0.53248 0.968704-4.855808 0.968704-32.444416v-31.827968l-49.563648-0.180224-49.563648-0.180224v-140.724224c0-77.400064-0.157696-141.185024-0.372736-141.748224-0.350208-0.948224-4.163584-1.019904-36.41344-1.019904h-36.018176l-0.372736 1.45408c-0.239616 0.79872-0.415744 64.587776-0.41984 141.750272l-0.012288 140.296192-49.5616 0.176128-49.565696 0.180224v31.451136c0 24.94464 0.172032 31.625216 0.837632 32.288768 0.681984 0.702464 25.976832 0.882688 134.967296 0.991232 21.01248 0.02048 39.92576 0.03072 56.48384 0.02048z"  horiz-adv-x="1024" />
      
      <glyph glyph-name="file-manager" unicode="&#58947;" d="M896 640h-349.866667l-55.466666 102.4c-21.333333 34.133333-59.733333 55.466667-102.4 55.466667h-213.333334C102.4 797.866667 42.666667 738.133333 42.666667 665.6v-614.4c0-46.933333 38.4-85.333333 85.333333-85.333333h768c46.933333 0 85.333333 38.4 85.333333 85.333333V554.666667c0 46.933333-38.4 85.333333-85.333333 85.333333zM89.6 665.6c0 51.2 42.666667 89.6 89.6 89.6H384c25.6 0 51.2-12.8 64-38.4L494.933333 640H89.6v25.6zM938.666667 55.46666700000003c0-21.333333-21.333333-42.666667-42.666667-42.666667H128c-21.333333 0-42.666667 21.333333-42.666667 42.666667V597.333333h810.666667c21.333333 0 42.666667-17.066667 42.666667-42.666666v-499.2zM524.8 179.20000000000005h-341.333333c-12.8 0-21.333333 8.533333-21.333334 21.333333s8.533333 21.333333 21.333334 21.333334h341.333333c12.8 0 21.333333-8.533333 21.333333-21.333334 0-8.533333-8.533333-21.333333-21.333333-21.333333zM823.466667 371.20000000000005h-640c-12.8 0-21.333333 8.533333-21.333334 21.333333s8.533333 21.333333 21.333334 21.333334h640c12.8 0 21.333333-8.533333 21.333333-21.333334s-8.533333-21.333333-21.333333-21.333333z"  horiz-adv-x="1024" />
      
      <glyph glyph-name="binary" unicode="&#58909;" d="M128-64l0 896 576 0 192-192 0-704-768 0zM832 576l-192 192-448 0 0-768 640 0 0 576zM448 384l-192 0 0 256 192 0 0-256zM384 576l-64 0 0-128 64 0 0 128zM384 128l64 0 0-64-192 0 0 64 64 0 0 128-64 0 0 64 128 0 0-192zM640 448l64 0 0-64-192 0 0 64 64 0 0 128-64 0 0 64 128 0 0-192zM704 64l-192 0 0 256 192 0 0-256zM640 256l-64 0 0-128 64 0 0 128z"  horiz-adv-x="1024" />
      
      <glyph glyph-name="javascript" unicode="&#59289;" d="M416 719.998h-160v-424.996c0-105.16-36.064-134.522-98.824-134.522-29.41 0-55.896 5.042-76.5 12.126L64 48.19200000000001C93.4 38.067999999999984 138.518 32 173.814 32 317.91 32 416 99.74199999999996 416 293.96000000000004V719.998zM764.926 736C610.04 736 512 648.004 512 531.692c0-100.166 75.502-162.88 185.282-203.33 79.4-28.316 110.784-53.616 110.784-95.078 0-45.512-36.278-74.85-104.896-74.85-63.726 0-121.578 21.28-160.788 42.51v0.042L512 74.54600000000005c37.278-21.276 106.882-42.51 182.334-42.51C875.708 32.039999999999964 960 129.14 960 243.43200000000002c0 97.1-53.916 159.8-170.556 204.326-86.278 34.382-122.54 53.59-122.54 97.084 0 34.4 31.376 65.738 96.086 65.738 63.692 0 107.488-21.414 133.01-34.582l38.25 128C894.25 721.56 840.376 736 764.926 736z"  horiz-adv-x="1024" />
      
      <glyph glyph-name="tar" unicode="&#58903;" d="M640 853.3H512V768h85.3v-85.3H512v-85.3h85.3V512H512v-85.3h85.3v-85.3H512v85.3h-85.3V512H512v85.3h-85.3v85.3H512V768h-85.3V853.3h-256c-23.6 0-42.7-19.1-42.7-42.7v-853.3c0-23.6 19.1-42.7 42.7-42.7h682.7c23.6 0 42.7 19.1 42.7 42.7v640C796 697.3 740 753.4 640 853.3zM597.3 0H426.7V298.70000000000005h170.7V0zM640 597.3V768l170.7-170.7H640z"  horiz-adv-x="1024" />
      
      <glyph glyph-name="python" unicode="&#59670;" d="M85.333333 653.226667C380.586667 850.346667 473.6 597.333333 481.28 457.813333 488.96 318.72 353.706667 143.36 183.893333 259.41333299999997L183.893333 29.866667000000007 85.333333 95.14666699999998 85.333333 653.226667M180.053333 580.266667L180.053333 350.72C334.506667 258.133333 387.413333 334.08000000000004 387.413333 465.493333 387.413333 651.093333 280.32 657.493333 180.053333 580.266667M643.413333 718.933333C643.413333 718.933333 635.733333 570.026667 643.413333 423.68 658.773333 277.33333300000004 840.106667 390.826667 840.106667 390.826667L840.106667 686.08 938.666667 674.133333 938.666667 279.893333C938.666667 17.066667000000052 676.266667 29.866667000000007 676.266667 29.866667000000007L643.413333 128C872.96 128 843.946667 280.32000000000005 843.946667 280.32000000000005 566.186667 171.94666700000005 544.853333 357.973333 544.853333 357.973333L544.853333 653.226667 643.413333 718.933333Z"  horiz-adv-x="1024" />
      
      <glyph glyph-name="java" unicode="&#59206;" d="M717.934 55.883c2.073 26.377-5.318 35.187-32.366 34.003-13.616-0.595-27.105-3.989-42.044-6.34-1.341 5.673-2.82 11.923-4.476 18.925 26.335 9.587 51.841 16.177 79.043 9.638 18.986-4.565 31.348-16.258 31.978-35.584 1.239-38.148 0.365-76.363 0.365-115.881-10.515 1.867-24.836-8.807-27.187 9.354-15.981-4.143-31.965-10.669-48.365-11.97-23.19-1.841-38.019 10.502-42.32 30.272-4.882 22.409 4.113 45.116 24.463 52.614 18.965 6.994 39.444 9.884 60.91 14.97zM718.57 31.89c-14.549-2.117-27.218-2.974-39.346-5.997-12.211-3.049-18.55-16.587-14.975-28.314 3.798-12.448 14.721-18.319 28.039-15.070 22.276 5.442 26.412 10.831 26.284 34.238-0.023 3.761-0.002 7.521-0.002 15.142zM468.815-39.133c-7.906 0-14.973 0-22.838 0-1.355 3.682-2.78 7.556-4.358 11.842-1.554-0.179-3.146 0.113-4.036-0.542-13.504-9.939-28.201-15.661-45.357-14.822-21.521 1.056-35.114 10.163-40.371 28.038-5.974 20.32 0.567 43.104 18.89 52.418 14.055 7.147 30.558 9.668 46.153 13.493 6.341 1.559 13.168 1.129 19.609 1.589 3.44 27.727-4.911 37.645-31.125 37.161-7.111-0.132-14.261-1.267-21.281-2.554-6.918-1.265-13.697-3.307-20.435-4.985-7.461 19.424-7.857 21.282 10.578 25.214 18.779 4.006 38.62 6.276 57.679 4.902 23.63-1.7 35.179-13.263 36.654-36.676 2.171-34.357 1.181-68.911 1.419-103.383 0.023-3.697-0.729-7.398-1.181-11.697zM436.553 31.658c-13.38-1.854-26.207-2.581-38.461-5.619-12.359-3.063-18.051-15.763-14.644-28.422 3.095-11.499 12.967-18.398 25.166-15.413 30.331 7.419 32.321 12.497 27.939 49.455zM516.663 506.271c-29.467 29.523-63.475 55.253-79.148 96.295-7.358 19.265-7.57 39.042 6.876 53.971 23.817 24.617 49.915 47.030 75.22 70.188 10.929 10 22.816 18.995 33.331 29.396 29.373 29.053 43.039 63.447 33.563 105.414 17.796-18.915 20.593-41.489 15.153-64.989-9.293-40.16-36.252-68.535-66.131-94.659-14.379-12.571-29.573-24.442-42.51-38.385-29.991-32.33-32.067-64.294-8.125-101.396 11.525-17.859 23.428-35.472 35.164-53.196-1.135-0.879-2.263-1.76-3.394-2.64zM487.145 110.129c1.808 0.943 2.215 1.338 2.635 1.35 32.743 1.013 32.436 0.924 41.503-30.575 7.843-27.236 16.484-54.246 24.777-81.357 1.296-0.198 2.593-0.395 3.892-0.595 9.143 37.152 18.286 74.306 27.603 112.16 9.152 0 19.458 0 33.116 0-7.733-29.353-14.4-57.423-22.658-85.020-5.456-18.242-13.671-35.644-19.725-53.728-3.365-10.054-9.305-13.741-19.313-12.228-1.406 0.211-2.922 0.269-4.3-0.015-16.18-3.33-23.478 3.639-27.901 19.411-12.218 43.586-26.171 86.69-39.627 130.596zM724.934 301.042c12.017-9.978-6.81-38.14-78.7-47.908-388.337-39.916-368.483 6.714-369.035 16.64-1.579 28.409 71.941 42.012 101.553 37.299-19.738-7.62-74.002-40.91 1.213-43.561 53.967-2.82 108.128-6.699 162.025-4.781 50.895 1.815 182.438 21.958 182.944 42.311zM278.381-94.275c-5.195 6.315-9.997 12.151-16.103 19.571 30.777 14.398 33.257 41.116 32.826 70.084-0.756 50.769-0.16 101.557-0.13 152.341 0.002 5.201 0 10.4 0 16.894 11.726 0 22.334 0 33.918 0 0.22-3.729 0.627-7.42 0.627-11.104 0-56.531 0.193-113.067-0.173-169.598-0.269-41.407-11.694-58.782-50.965-78.19zM665.446 728.629c-21.126-14.121-39.993-25.627-57.567-38.845-12.879-9.684-25.317-20.553-35.726-32.787-16.841-19.787-16.823-34.955-2.882-57.211 5.567-8.883 11.328-17.68 17.555-26.103 13.102-17.724 12.658-36.591 0.809-53.366-9.75-13.803-23.533-24.756-37.775-39.261-0.615 5.917-1.106 7.027-0.742 7.618 18.492 30.187 18.050 37.452-4.147 66.432-27.381 35.755-32.285 67.497-11.395 97.41 9.843 14.094 23.29 27.499 38.121 35.884 26.791 15.142 55.831 26.316 83.995 39.014 1.891 0.848 4.289 0.577 9.758 1.213zM624.373 325.061c-160.089-47.191-222.26 9.852-222.26 9.852l20.81 18.112c8.034-5.773 50.29-32.523 140.949-13.351l60.5-14.612zM439.426 501.618c0 0-100.196-36.020 7.043-38.523 14.633-0.342 210.172 14.884 210.172 14.884s-126.169-35.975-238.974-32.837c-151.031 15.070 21.653 56.577 21.759 56.476zM416.086 429.157c0 0-14.781-28.618 27.882-29.689 101.518-2.55 175.663 15.385 175.663 15.385s15.595-20.033 15.595-22.079c0 0-135.979-31.446-213.553-11.664-49.553 12.64-16.777 42.436-5.585 48.048zM761.119 262.902c-258.39-74.507-388.98-39.125-388.98-39.125s55.492-46.786 194.491-19.951c51.585 9.959 143.916 37.25 194.489 59.076zM658.133 381.513c11.762 7.633 22.711 13.267 31.859 21.025 12.982 11.011 26.18 22.409 36.41 35.836 9.67 12.693 11.041 28.524 1.667 43.091-9.542 14.825-49.002 16.011-54.32 16.835 2.527 2.019 7.611 5.798 7.611 5.798s19.391 5.098 44.734 1.986c35.030-7.678 47.081-45.126 25.694-74.251-17.629-24.011-62.002-48.374-93.654-50.321z"  horiz-adv-x="1024" />
      
      <glyph glyph-name="jar" unicode="&#59566;" d="M256 832C256 867.4 284.6 896 320 896h384c35.4 0 64-28.6 64-64s-28.6-64-64-64H320c-35.4 0-64 28.6-64 64zM192 576c0 70.6 57.4 128 128 128h384c70.6 0 128-57.4 128-128v-576c0-70.6-57.4-128-128-128H320c-70.6 0-128 57.4-128 128V576z m192-128c-35.4 0-64-28.6-64-64v-192c0-35.4 28.6-64 64-64h256c35.4 0 64 28.6 64 64v192c0 35.4-28.6 64-64 64H384z"  horiz-adv-x="1024" />
      
      <glyph glyph-name="terminal" unicode="&#59489;" d="M143.36 711.68h737.28a81.92 81.92 0 0 0 81.92-81.92v-327.68c0-135.72096-110.03904-245.76-245.76-245.76H307.2C171.47904 56.32 61.44 166.35904 61.44 302.08V629.76a81.92 81.92 0 0 0 81.92 81.92z m93.92128-254.23872L310.72256 384l-73.44128-73.44128a40.96 40.96 0 0 1 57.91744-57.91744l102.4 102.4a40.96 40.96 0 0 1 0 57.91744l-102.4 102.4a40.96 40.96 0 0 1-57.91744-57.91744zM593.92 322.56h-122.88a40.96 40.96 0 1 1 0-81.92h122.88a40.96 40.96 0 1 1 0 81.92z"  horiz-adv-x="1024" />
      
      <glyph glyph-name="exe" unicode="&#58933;" d="M810.666667 725.333333a85.333333 85.333333 0 0 0 85.333333-85.333333v-512a85.333333 85.333333 0 0 0-85.333333-85.333333H213.333333a85.333333 85.333333 0 0 0-85.333333 85.333333V640a85.333333 85.333333 0 0 0 85.333333 85.333333h597.333334m0-597.333333V554.666667H213.333333v-426.666667h597.333334z"  horiz-adv-x="1024" />
      
      <glyph glyph-name="golang" unicode="&#59471;" d="M800.20014 506.4c-21.8-5.6-39.8-8.6-58.2-15.2-14.6-3.8-29.4-7.8-46.4-12.2l-1.2-0.2c-8.4-2.4-9.2-2.6-17 6.4-9.4 10.6-16.2 17.4-29.2 23.8-39.4 19.2-77.4 13.6-112.8-9.4-42.4-27.4-64.2-68-63.6-118.4 0.6-50 34.8-91 82.4-97.8 44-5.6 79.6 9.2 107.6 41 4.2 5.2 8 10.6 12.2 16.6 1.6 2 3 4.2 4.6 6.6h-120.2c-13 0-16.2 8-11.8 18.6 8 19.4 23 51.8 31.8 68 1.8 3.6 6.2 11.6 13.8 11.6h202.2c9 26.8 23.6 53.8 43.2 79.4 45.4 59.8 98.6 91 174.4 104 63.6 11.2 123.4 5 177.8-31.8 49.2-33.6 79.6-79.2 87.8-139 10.6-84.2-13.8-152.6-73.4-211.2-39.4-41.8-89.8-68-147.8-79.8-11.2-2-22.2-3-33-4-5.8-0.4-11.4-1-17-1.6-56.6 1.2-108.4 17.4-152 54.8-30.6 26.6-51.8 59.2-62.2 97-7.4-14.6-16-28.8-28-42.2-43.2-59.2-101.8-96-175.8-105.8-61.2-8.2-117.8 3.6-167.8 41-46 35-72.2 81-79 138.4-8.2 68 11.8 130.8 52.8 182.6 44.4 58 103 94.8 174.6 107.8 58.6 12.4 114.6 3.8 165.2-30.6 33-21.8 56.6-51.6 72.2-87.8 3.8-5.6 1.2-8.8-6.2-10.6z m-703.6-11.2c-2.5 0-3.12 1.2-1.88 3.2l13.1 16.8c1.24 1.8 4.36 3 6.86 3H337.20014c2.4 0 3-1.8 1.8-3.6l-10.6-16.2c-1.2-2-4.4-3.8-6.2-3.8l-225.6 0.6zM2.49214 437.8c-2.492 0-3.116 1.4-1.868 3.2l13.086 16.8c1.248 1.8 4.364 3.2 6.85 3.2H304.80014c2.4 0 3.6-2 3-3.8l-5-15c-0.6-2.4-3-3.8-5.6-3.8l-294.708-0.6z m148.948-53.6c-1.24-1.8-0.62-3.6 1.86-3.6l135.9-0.6c1.8 0 4.4 1.8 4.4 4.2l1.2 15c0 2.6-1.2 4.4-3.8 4.4H166.40014c-2.5 0-4.98-1.8-6.24-3.8l-8.72-15.6z m1002.96 36c-0.4 5.2-0.6 9.6-1.4 14-11.2 61.6-68 96.6-127.2 82.8-58-13-95.4-49.8-109-108.4-11.2-48.6 12.4-97.8 57.2-117.8 34.4-15 68.6-13.2 101.6 3.8 49.2 27.2 76 65.4 79.2 119-0.2 2.4-0.2 4.6-0.4 6.6z"  horiz-adv-x="1280" />
      
      <glyph glyph-name="config" unicode="&#58901;" d="M806.827 566.528a21.333 21.333 0 0 0 10.666-18.475v-328.106a21.333 21.333 0 0 0-10.666-18.475l-284.16-164.096a21.333 21.333 0 0 0-21.334 0l-284.16 164.096a21.333 21.333 0 0 0-10.666 18.475V548.053a21.333 21.333 0 0 0 10.666 18.475l284.16 164.096a21.333 21.333 0 0 0 21.334 0l284.16-164.096z m-252.16 219.52a85.333 85.333 0 0 1-85.334 0l-284.16-164.096a85.333 85.333 0 0 1-42.666-73.899v-328.106a85.333 85.333 0 0 1 42.666-73.899l284.16-164.096a85.333 85.333 0 0 1 85.334 0l284.16 164.096a85.333 85.333 0 0 1 42.666 73.899V548.053a85.333 85.333 0 0 1-42.666 73.899l-284.16 164.096zM512 277.33299999999997a106.667 106.667 0 1 0 0 213.334 106.667 106.667 0 0 0 0-213.334z m0-64a170.667 170.667 0 1 1 0 341.334 170.667 170.667 0 0 1 0-341.334z"  horiz-adv-x="1024" />
      
      <glyph glyph-name="onekey" unicode="&#58902;" d="M704.802 444.757h-1.468c-10.871 0-19.797-3.225-28.364-8.704-7.51 22.58-26.641 38.861-51.269 38.861a55.658 55.658 0 0 1-29.832-8.704c-7.51 22.596-26.641 38.86-51.268 38.86-9.609 0-18.535-2.474-26.437-6.826V556.3399999999999c0 31.642-23.227 57.31-54.17 57.31-30.958 0-56.03-25.668-56.03-57.31v-222.464l-34.047 34.919c-21.88 22.374-60.604 19.2-79.24 0-18.638-19.183-30.857-57.822-4.165-85.3l156.467-160.136c3.243-3.311 6.776-6.059 10.513-8.397C484.028 91 516.71 76.79999999999995 585.847 76.79999999999995c157.935 0 172.544 87.774 172.544 196.045V387.447c0 31.642-22.647 57.31-53.589 57.31zM728.9 272.845c0-91.614-0.41-165.888-143.053-165.888-60.416 0-96.7 13.875-124.177 41.984L313.532 300.55999999999995c-13.107 13.483-9.814 30.754 0.921 41.813 10.718 11.043 30.413 11.435 40.79 0.837a13667276.1 13667276.1 0 0 1 80.213-82.142V550.315c0 14.984 11.878 27.136 26.539 27.136s24.678-12.152 24.678-27.136v-183.979h0.307a15.462 15.462 0 0 1-0.307-3.02c0-8.33 6.605-15.07 14.746-15.07a14.916 14.916 0 0 1 14.745 15.07c0 1.023-0.102 2.047-0.29 3.02h0.29v75.4c0 14.985 10.616 27.137 25.259 27.137 0 0 25.975 0.358 25.975-27.136v-99.533h0.308a15.48 15.48 0 0 1-0.308-3.021c0-8.329 6.605-15.07 14.746-15.07a14.916 14.916 0 0 1 14.746 15.07c0 1.041-0.103 2.048-0.29 3.02h0.29V411.58c0 14.984 10.444 27.136 25.088 27.136 0 0 26.521-1.707 26.521-27.136v-87.467h0.29a15.53 15.53 0 0 1-0.29-3.02c0-8.33 6.605-15.07 14.746-15.07s14.37 6.74 14.37 15.07c0 1.023-0.102 2.047-0.273 3.02h0.273V383.83000000000004c0 14.985 10.923 27.136 25.6 27.136 0 0 25.685 1.076 25.685-27.136v-110.984zM384.068 470.903v50.688a88.747 88.747 0 0 0-7.338 35.328c0 48.043 37.785 86.972 84.394 86.972 46.626 0 84.412-38.929 84.412-86.954 0-6.554-0.75-12.937-2.1-19.064a39.646 39.646 0 0 0 27.17-12.254 119.5 119.5 0 0 1 4.302 31.318c0 64.716-50.944 117.196-113.784 117.196-62.822 0-113.766-52.48-113.766-117.196 0-34.048 14.2-64.615 36.693-86.034z"  horiz-adv-x="1024" />
      
      <glyph glyph-name="clear" unicode="&#58898;" d="M899.1 26.4l-53 305.6H864c14.4 0 26 11.6 26 26V550c0 14.4-11.6 26-26 26H618V758c0 14.4-11.6 26-26 26H432c-14.4 0-26-11.6-26-26v-182H160c-14.4 0-26-11.6-26-26v-192c0-14.4 11.6-26 26-26h17.9l-53-305.6c-0.3-1.5-0.4-3-0.4-4.4 0-14.4 11.6-26 26-26h723c1.5 0 3 0.1 4.4 0.4 14.2 2.4 23.7 15.9 21.2 30zM204 506h272V714h72v-208h272v-104H204V506z m468-440V222c0 4.4-3.6 8-8 8h-48c-4.4 0-8-3.6-8-8v-156H416V222c0 4.4-3.6 8-8 8h-48c-4.4 0-8-3.6-8-8v-156H202.8l45.1 260H776l45.1-260H672z"  horiz-adv-x="1024" />
      
      <glyph glyph-name="to-bottom" unicode="&#58899;" d="M490.667 768h42.666v-593.067h-42.666zM512 149.33299999999997c-4.267 0-12.8 0-17.067 4.267l-256 256 29.867 29.867 238.933-238.934 238.934 238.934 29.866-29.867-256-256c4.267-4.267-4.266-4.267-8.533-4.267z m-256-128h512v-42.666H256z"  horiz-adv-x="1024" />
      
      <glyph glyph-name="to-top" unicode="&#58900;" d="M490.667 593.067h42.666V0h-42.666zM750.933 324.26700000000005L512 567.467 273.067 328.533 243.2 358.4l256 256c8.533 8.533 21.333 8.533 29.867 0l256-256-34.134-34.133zM256 789.333h512v-42.666H256z"  horiz-adv-x="1024" />
      
      <glyph glyph-name="github" unicode="&#58897;" d="M512 853.333a464.64 464.64 0 0 1-469.333-459.52 460.373 460.373 0 0 1 320.853-436.48c23.467-4.266 32 9.814 32 22.187V57.6c-130.56-27.733-158.293 61.44-158.293 61.44a122.027 122.027 0 0 1-52.054 67.413c-42.666 28.16 3.414 27.734 3.414 27.734a98.56 98.56 0 0 0 71.68-47.36A101.12 101.12 0 0 1 396.8 128.853a99.413 99.413 0 0 0 29.867 61.44c-104.107 11.52-213.334 50.774-213.334 226.987a177.067 177.067 0 0 0 47.36 124.16 161.28 161.28 0 0 0 4.694 121.173s39.68 12.374 128-46.933a455.68 455.68 0 0 0 234.666 0c89.6 59.307 128 46.933 128 46.933a161.28 161.28 0 0 0 4.694-121.173 177.067 177.067 0 0 0 49.92-123.307c0-176.64-110.08-215.466-213.334-226.986a106.667 106.667 0 0 0 32-85.334v-125.866c0-14.934 8.534-26.88 32-22.187a460.8 460.8 0 0 1 320 436.053A464.64 464.64 0 0 1 512 853.333"  horiz-adv-x="1024" />
      
      <glyph glyph-name="dashboard" unicode="&#58895;" d="M924.8 510.4c-22.6 53.4-54.9 101.3-96 142.4-41.1 41.1-89 73.4-142.4 96C631.1 772.2 572.5 784 512 784s-119.1-11.8-174.4-35.2c-53.4-22.6-101.3-54.9-142.4-96-41.1-41.1-73.4-89-96-142.4C75.8 455.1 64 396.5 64 336c0-132.7 58.3-257.7 159.9-343.1l1.7-1.4c5.8-4.8 13.1-7.5 20.6-7.5h531.7c7.5 0 14.8 2.7 20.6 7.5l1.7 1.4C901.7 78.3 960 203.3 960 336c0 60.5-11.9 119.1-35.2 174.4zM761.4 60H262.6C184.5 130.5 140 230.4 140 336c0 99.4 38.7 192.8 109 263 70.3 70.3 163.7 109 263 109 99.4 0 192.8-38.7 263-109 70.3-70.3 109-163.7 109-263 0-105.6-44.5-205.5-122.6-276zM623.5 474.5c-3.1 3.1-8.2 3.1-11.3 0L527.7 390c-18.7 5-39.4 0.2-54.1-14.5-21.9-21.9-21.9-57.3 0-79.2 21.9-21.9 57.3-21.9 79.2 0 14.7 14.7 19.5 35.4 14.5 54.1l84.5 84.5c3.1 3.1 3.1 8.2 0 11.3l-28.3 28.3zM490 576h44c4.4 0 8 3.6 8 8v80c0 4.4-3.6 8-8 8h-44c-4.4 0-8-3.6-8-8v-80c0-4.4 3.6-8 8-8z m260-218v-44c0-4.4 3.6-8 8-8h80c4.4 0 8 3.6 8 8v44c0 4.4-3.6 8-8 8h-80c-4.4 0-8-3.6-8-8z m12.7 197.2l-31.1 31.1c-3.1 3.1-8.2 3.1-11.3 0l-56.6-56.6c-3.1-3.1-3.1-8.2 0-11.3l31.1-31.1c3.1-3.1 8.2-3.1 11.3 0l56.6 56.6c3.1 3.1 3.1 8.2 0 11.3z m-458.6 31.1c-3.1 3.1-8.2 3.1-11.3 0l-31.1-31.1c-3.1-3.1-3.1-8.2 0-11.3l56.6-56.6c3.1-3.1 8.2-3.1 11.3 0l31.1 31.1c3.1 3.1 3.1 8.2 0 11.3l-56.6 56.6zM262 366h-80c-4.4 0-8-3.6-8-8v-44c0-4.4 3.6-8 8-8h80c4.4 0 8 3.6 8 8v44c0 4.4-3.6 8-8 8z"  horiz-adv-x="1024" />
      
      <glyph glyph-name="role" unicode="&#58896;" d="M508.928 349.696c-120.32 0-218.112 97.792-218.112 218.112S388.608 785.92 508.928 785.92 727.04 688.128 727.04 567.808s-97.792-218.112-218.112-218.112z m0 385.024c-92.16 0-166.912-74.752-166.912-166.912s74.752-166.912 166.912-166.912S675.84 475.648 675.84 567.808 601.088 734.72 508.928 734.72zM851.456 11.264c-14.336 0-25.6 11.264-25.6 25.6 0 167.936-136.704 304.64-304.64 304.64s-304.64-136.704-304.64-304.64c0-14.336-11.264-25.6-25.6-25.6s-25.6 11.264-25.6 25.6c0 196.096 159.744 355.84 355.84 355.84s355.84-159.744 355.84-355.84c0-14.336-11.264-25.6-25.6-25.6zM293.888 444.928c-99.84 0-181.248 80.896-181.248 180.736 0 99.84 80.896 180.736 180.736 180.736 42.496 0 83.456-14.848 115.2-41.472l-32.768-38.912c-22.016 18.432-52.224 29.184-82.432 29.184-71.68 0-129.536-57.856-129.536-129.536s58.368-129.536 130.048-129.536v-51.2zM35.84 169.984c-14.336 0-25.6 11.264-25.6 25.6 0 161.792 131.584 293.376 293.376 293.376 14.336 0 25.6-11.264 25.6-25.6s-11.264-25.6-25.6-25.6c-133.632 0-242.176-108.544-242.176-242.176 0-14.336-11.264-25.6-25.6-25.6zM736.768 437.76v51.2c71.68 0 129.536 57.856 129.536 129.536s-57.856 129.536-129.536 129.536c-30.72 0-59.392-10.24-82.432-29.184l-32.768 39.424c32.256 27.136 72.192 41.472 115.2 41.472 99.84 0 180.736-80.896 180.736-180.736 0-100.352-80.896-181.248-180.736-181.248zM994.304 169.984c-14.336 0-25.6 11.264-25.6 25.6 0 133.632-108.544 242.176-242.176 242.176-14.336 0-25.6 11.264-25.6 25.6s11.264 25.6 25.6 25.6c161.792 0 293.376-131.584 293.376-293.376 0-14.336-11.264-25.6-25.6-25.6z"  horiz-adv-x="1024" />
      
      <glyph glyph-name="export" unicode="&#58888;" d="M924.672 375.296c-18.944 0-34.304-15.36-34.304-34.304v-270.848c0-25.088-20.48-45.568-45.568-45.568H179.2c-25.088 0-45.568 20.48-45.568 45.568V697.856c0 25.088 20.48 45.568 45.568 45.568h291.84a34.304 34.304 0 0 1 0 68.608H179.2c-62.976 0-114.176-51.2-114.176-114.176v-627.2c0-62.976 51.2-114.176 114.176-114.176h665.6c62.976 0 114.176 51.2 114.176 114.176V341.504c0 18.432-15.36 33.792-34.304 33.792z m-692.224-168.96c106.496 100.352 213.504 256 403.456 246.272 13.312-0.512 24.064-11.264 24.064-24.576v-66.048c0-20.48 24.064-32.256 39.936-19.456l245.76 198.656c12.288 9.728 12.288 28.672 0 38.4L700.928 799.744c-15.872 12.8-40.96 1.536-41.472-18.944v-66.56c0-12.288-8.704-21.504-20.992-24.576-326.144-74.24-409.088-456.704-406.016-483.328z"  horiz-adv-x="1024" />
      
      <glyph glyph-name="plugin" unicode="&#58889;" d="M702.836-125.673H104.727c-53.527 0-95.418 44.218-95.418 95.418V116.364c0 11.636 4.655 20.945 13.964 27.927 9.309 6.982 20.945 9.309 30.254 6.982 11.637-2.328 23.273-4.655 32.582-4.655 67.491 0 123.346 55.855 123.346 123.346S153.6 393.309 86.109 393.309c-9.309 0-20.945-2.327-32.582-4.654-11.636-2.328-20.945 0-30.254 6.981S9.309 411.927 9.309 423.564V570.182c0 53.527 44.218 95.418 95.418 95.418h107.055c-2.327 11.636-2.327 23.273-2.327 34.91 0 107.054 86.109 193.163 193.163 193.163s193.164-86.11 193.164-193.164c0-11.636 0-23.273-2.327-34.909h107.054c53.527 0 95.418-44.218 95.418-95.418v-107.055h20.946c107.054 0 193.163-86.109 193.163-193.163S923.927 76.8 816.873 76.8h-20.946v-107.055c4.655-51.2-39.563-95.418-93.09-95.418zM79.127 76.8v-104.727c0-13.964 11.637-25.6 25.6-25.6h598.11c13.963 0 25.6 11.636 25.6 25.6V123.345c0 11.637 4.654 23.273 13.963 27.928 9.31 6.982 20.945 6.982 32.582 4.654 13.963-4.654 27.927-9.309 41.89-9.309 67.492 0 123.346 55.855 123.346 123.346s-55.854 123.345-123.345 123.345c-13.964 0-27.928-2.327-41.891-9.309-11.637-4.655-23.273-2.327-32.582 4.655-9.31 6.981-13.964 16.29-13.964 27.927v153.6c0 13.963-11.636 25.6-25.6 25.6H546.91c-11.636 0-23.273 6.982-30.254 16.29-6.982 9.31-6.982 23.273-2.328 32.583 9.31 18.618 11.637 34.909 11.637 53.527 0 67.49-55.855 123.345-123.346 123.345s-123.345-55.854-123.345-123.345c0-18.618 4.654-37.237 11.636-53.527 4.655-11.637 4.655-23.273-2.327-32.582-6.982-9.31-18.618-16.291-30.255-16.291h-153.6c-13.963 0-25.6-11.637-25.6-25.6v-104.727c109.382 4.654 200.146-83.782 200.146-193.164 0-107.055-86.11-193.164-193.164-193.164-2.327-2.327-4.654-2.327-6.982-2.327z"  horiz-adv-x="1024" />
      
      <glyph glyph-name="privilege" unicode="&#58890;" d="M513.17 896L115.983 769.836c-14.865-4.709-24.96-18.504-24.98-34.098l2.048-496.12 0.47-5.669a347.047 347.047 0 0 1 98.245-166.22c62.437-61.587 215.662-142.098 281.048-176.456 10.276-5.408 17.944-9.417 22.332-11.846l7.457-4.048a17.469 17.469 0 0 1 16.324-0.21l10.867 5.538c38.366 18.753 232.546 115.808 304.75 186.982a345.888 345.888 0 0 1 98.284 166.22l2.3 501.619a35.791 35.791 0 0 1-24.982 34.308L513.17 896zM868.34 243.166a295.624 295.624 0 0 0-79.79-130.633c-57.24-56.47-212.384-137.11-268.774-165.54a17.404 17.404 0 0 0-16.064 0c-57.5 30.169-210.084 110.34-265.744 165.28a294.416 294.416 0 0 0-79.831 130.633l-2.01 460.953a15.914 15.914 0 0 0 11.037 15.175L502.383 825.585a35.401 35.401 0 0 0 21.313 0l335.219-106.551a15.902 15.902 0 0 0 11.126-15.175l-1.92-460.703h0.22z m-349.114 413.42a146.423 146.423 0 0 0 103.563-42.614 142.95 142.95 0 0 0 42.625-102.273 142.968 142.968 0 0 0-43.225-102.013 146.032 146.032 0 0 0-67.216-37.127l-0.42-60.478h60.609a36.278 36.278 0 0 0 25.8-10.476 36.235 36.235 0 0 0 10.777-25.671 35.86 35.86 0 0 0-10.827-25.57 36.747 36.747 0 0 0-25.95-10.577h-60.608l-0.26-100.933a35.877 35.877 0 0 0-10.826-25.571 36.678 36.678 0 0 0-25.95-10.566 36.278 36.278 0 0 0-25.802 10.476 36.252 36.252 0 0 0-10.776 25.67l0.9 233.906a145.674 145.674 0 0 0-66.956 37.337 143.084 143.084 0 0 0 0.47 204.586 146.828 146.828 0 0 0 103.912 42.114l0.16-0.22z m88.139-143.158a83.415 83.415 0 0 1-25.101 60.139c-33.848 33.218-88.039 33.337-122.026 0.25a83.176 83.176 0 0 1-25.571-59.879 84.143 84.143 0 0 1 25.1-60.218 85.864 85.864 0 0 1 60.869-24.891c46.973 0.46 85.21 37.906 86.649 84.86l0.08-0.26z m0 0"  horiz-adv-x="1024" />
      
      <glyph glyph-name="import" unicode="&#58891;" d="M85.944 379.985c-19.57 0-35.401-15.831-35.401-35.401v-279.841c0-65.068 52.852-117.92 117.92-117.92H856.41c65.068 0 117.92 52.852 117.92 117.92V712.927c0 65.068-52.852 117.92-117.92 117.92H554.506c-19.57 0-35.4-15.831-35.4-35.401s15.83-35.401 35.4-35.401H856.41c25.928 0 47.118-21.19 47.118-47.118v-648.184c0-25.928-21.19-47.118-47.118-47.118H168.462c-25.927 0-47.118 21.19-47.118 47.118V344.708c-0.124 19.446-15.955 35.277-35.4 35.277zM54.906 829.974c120.91-92.242 273.857-177.503 263.511-373.579-0.748-13.836-11.592-24.68-25.553-24.68h-68.06c-21.44 0.124-33.406-24.806-19.819-41.384l205.55-254.039c10.096-12.59 29.417-12.59 39.638 0.125l227.488 252.916c13.338 16.579 1.496 42.506-19.695 42.63h-68.932c-12.963 0-22.312 8.851-25.18 21.565C486.822 790.708 82.205 832.841 54.907 829.974z"  horiz-adv-x="1024" />
      
      <glyph glyph-name="restart" unicode="&#58892;" d="M965.824 729.92l-64.448-50.368A478.848 478.848 0 0 1 523.328 864 479.68 479.68 0 0 1 43.456 384.576 479.872 479.872 0 0 1 974.272 219.52a9.152 9.152 0 0 1-5.568 11.776l-64.832 22.272a9.152 9.152 0 0 1-11.52-5.44 391.04 391.04 0 0 0-90.944-142.08 390.528 390.528 0 0 0-277.824-115.2 390.08 390.08 0 0 0-277.888 115.2 391.168 391.168 0 0 0-115.072 278.08A391.104 391.104 0 0 0 245.76 662.144a390.592 390.592 0 0 0 277.824 115.2 390.144 390.144 0 0 0 277.888-115.2c11.264-11.264 21.888-23.296 31.744-35.84l-68.8-53.76a9.088 9.088 0 0 1-0.96-13.568c1.216-1.28 2.688-2.112 4.416-2.56l200.64-49.088a9.152 9.152 0 0 1 11.328 8.768l0.896 206.72a9.216 9.216 0 0 1-14.848 7.104zM719.36 396.928l-296.064 215.04a15.872 15.872 0 0 1-25.28-12.928v-430.016c0-13.12 14.784-20.48 25.28-12.928l296.128 215.04a15.808 15.808 0 0 1 0 25.792zM461.888 262.912v242.24L628.48 384 461.824 262.912z"  horiz-adv-x="1024" />
      
      <glyph glyph-name="remote" unicode="&#58893;" d="M216.747 522.24v-48.924h-92.73c-6.826 0-12.23-8.25-12.23-18.49v-6.257c0-10.24 5.404-18.489 12.23-18.489h225.565c6.827 0 12.231 8.249 12.231 18.489v6.258c0 10.24-5.404 18.489-12.23 18.489h-89.6V522.24H412.16c35.556 0 64.569 31.289 64.569 69.689V797.582c0 38.4-29.013 69.69-64.569 69.69H93.013c-35.555 0-64.569-31.005-64.569-69.69v-205.938c0-38.4 29.014-69.688 64.57-69.688l123.733 0.284zM71.68 591.644V797.582c0 14.507 9.671 26.454 21.333 26.454H412.16c11.662 0 21.333-11.947 21.333-26.454v-205.938c0-14.506-9.67-26.453-21.333-26.453H93.013c-11.662 0.285-21.333 12.231-21.333 26.453z m866.702-244.337H561.778c-27.876 0-50.631-25.031-50.631-56.036v-240.355c0-31.005 22.755-56.036 50.63-56.036h166.97v-51.2h-93.014c-6.542 0-11.946-7.964-11.946-17.636v-7.964c0-9.671 5.404-17.636 11.946-17.636h226.703c6.542 0 11.946 7.965 11.946 17.636v7.964c0 9.672-5.404 17.636-11.946 17.636h-90.17v51.2h166.4c27.876 0 50.632 25.031 50.632 56.036V291.27c-0.285 30.72-23.04 56.036-50.916 56.036zM532.48 778.809h358.684v-306.916a21.618 21.618 0 1 1 43.236 0V822.33H532.48a21.618 21.618 0 0 1-21.618-21.618c0-12.231 9.956-21.902 21.618-21.902z m-63.431-803.84h-358.4V281.884a21.618 21.618 0 1 1-43.236 0V-68.55h401.92c11.947 0 21.618 9.671 21.618 21.618a22.101 22.101 0 0 1-21.902 21.902z m0 0M384.853 599.893h-263.11a21.618 21.618 0 0 0-21.619 21.618V773.12c0 11.947 9.672 21.618 21.618 21.618h263.111c11.947 0 21.618-9.671 21.618-21.618v-151.609c0.285-11.947-9.671-21.618-21.618-21.618z m0 0"  horiz-adv-x="1024" />
      
      <glyph glyph-name="panda" unicode="&#58884;" d="M99.096 580.366s-82.58 64.032-82.58 132.13c0 66.064 33.032 165.162 148.646 148.646 83.37-11.91 99.096-165.162 99.096-165.162L99.096 580.366z m825.81 0s82.58 64.032 82.58 132.13c0 66.064-33.032 165.162-148.646 148.646-83.37-11.91-99.096-165.162-99.096-165.162l165.162-115.614zM1024 334.452c0-264.526-229.23-429.42-512.002-429.42S0 69.924 0 334.452 283.96 829.936 512.002 829.936 1024 598.978 1024 334.452zM330.324 53.874c0-82.096 81.34-148.646 181.678-148.646s181.678 66.55 181.678 148.646H330.324zM644.13 284.902C594.582 367.484 561.55 384 512.002 384c-49.548 0-82.58-16.516-132.13-99.096-42.488-70.814-78.73-211.264-49.548-247.742 66.064-82.58 165.162-33.032 181.678-33.032 16.516 0 115.614-49.548 181.678 33.032 29.18 36.476-7.064 176.93-49.55 247.74zM611.098 400.516c0 45.608 36.974 82.58 82.58 82.58 49.548 0 198.194-99.098 198.194-165.162s-79.934-144.904-148.646-99.096c-49.548 33.032-132.128 148.646-132.128 181.678z m-198.194 0c0 45.608-36.974 82.58-82.58 82.58-49.548 0-198.194-99.098-198.194-165.162s79.934-144.904 148.646-99.096c49.548 33.032 132.128 148.646 132.128 181.678zM512.002 169.378c-30.06 0-115.614-5.668-115.614-33.032 0-49.638 105.484-85.24 115.614-82.58 10.128-2.66 115.614 32.944 115.614 82.58-0.002 27.366-85.556 33.032-115.614 33.032zM297.292 400.516a33.032 33.032 0 1 1 66.064 0 33.032 33.032 0 1 1-66.064 0zM660.646 400.516a33.032 33.032 0 1 1 66.064 0 33.032 33.032 0 1 1-66.064 0z"  horiz-adv-x="1024" />
      
      <glyph glyph-name="delete" unicode="&#58885;" d="M608 128c-17.696 0-32 14.304-32 32V512c0 17.696 14.304 32 32 32s32-14.304 32-32v-352c0-17.696-14.304-32-32-32zM416 128c-17.696 0-32 14.304-32 32V512c0 17.696 14.304 32 32 32s32-14.304 32-32v-352c0-17.696-14.304-32-32-32zM928 672H768v64c0 52.928-42.72 96-95.264 96H352c-52.928 0-96-43.072-96-96v-64H96c-17.696 0-32-14.304-32-32s14.304-32 32-32h832c17.696 0 32 14.304 32 32s-14.304 32-32 32z m-608 64c0 17.632 14.368 32 32 32h320.736C690.272 768 704 753.952 704 736v-64H320v64zM736.128-64H288.064c-52.928 0-96 43.072-96 96V512.48c0 17.664 14.336 32 32 32s32-14.336 32-32V32c0-17.664 14.368-32 32-32h448.064c17.664 0 32 14.336 32 32V511.168c0 17.664 14.304 32 32 32s32-14.336 32-32V32c0-52.928-43.072-96-96-96z"  horiz-adv-x="1024" />
      
      <glyph glyph-name="stopped" unicode="&#58886;" d="M512 853.333C254.733 853.333 42.666 641.263 42.666 384s212.067-469.332 469.332-469.332S981.332 126.735 981.332 384 769.262 853.334 511.998 853.334M512-128C228.693-128 0 100.693 0 384S228.693 896 512 896s512-228.693 512-512-228.693-512-512-512M384 512h256v-256H384z"  horiz-adv-x="1024" />
      
      <glyph glyph-name="text-wrap" unicode="&#58887;" d="M640 128h64a106.667 106.667 0 1 1 0 213.333H128v85.334h576a192 192 0 1 0 0-384h-64v-85.334l-170.667 128 170.667 128V128zM128 725.333h768V640H128v85.333zM384 128v-85.333H128V128h256z"  horiz-adv-x="1024" />
      
      <glyph glyph-name="language" unicode="&#58881;" d="M789.333333 469.333333l187.733334-469.333333h-91.946667l-51.242667 128h-174.506666l-51.157334-128h-91.904L704 469.333333h85.333333zM426.666667 810.666667v-85.333334h256v-85.333333h-83.968a777.472 777.472 0 0 0-154.453334-268.842667 634.197333 634.197333 0 0 1 99.669334-72.832l-32.042667-80.128A725.973333 725.973333 0 0 0 384 310.4a711.509333 711.509333 0 0 0-264.576-151.381333l-22.869333 82.304a627.2 627.2 0 0 1 227.285333 129.792A771.328 771.328 0 0 0 203.392 554.666667h95.573333A684.032 684.032 0 0 1 384 431.914667a689.706667 689.706667 0 0 1 124.16 208.042666L85.333333 640V725.333333h256V810.666667h85.333334z m320-464.426667L693.461333 213.333333h106.325334L746.666667 346.24z"  horiz-adv-x="1024" />
      
      <glyph glyph-name="dark" unicode="&#58882;" d="M469.76 765.866667C277.76 744.96 128 581.973333 128 384a384 384 0 0 1 384-384c197.546667 0 360.533333 149.333333 381.866667 341.333333 3.84 33.706667-33.28 60.586667-65.706667 40.533334A230.528 230.528 0 0 0 473.6 576c0 45.226667 13.226667 87.893333 35.84 123.306667 19.2 28.586667-1.706667 69.546667-39.68 66.56z"  horiz-adv-x="1024" />
      
      <glyph glyph-name="light" unicode="&#58883;" d="M258.133333 719.36l-16.64 16.64a42.368 42.368 0 0 1-59.733333 0l-0.426667-0.426667a41.984 41.984 0 0 1 0-59.733333l16.64-16.64c16.64-16.64 43.093333-16.64 59.733334 0l0.426666 0.426667a41.984 41.984 0 0 1 0 59.733333zM128.426667 448H84.906667c-23.466667 0-42.24-18.773333-42.24-42.24v-0.426667c0-23.466667 18.773333-42.24 42.24-42.24H128c23.893333-0.426667 42.666667 18.346667 42.666667 41.813334v0.426666c0 23.893333-18.773333 42.666667-42.24 42.666667z m384 424.533333H512c-23.893333 0-42.666667-18.773333-42.666667-42.24v-40.96c0-23.466667 18.773333-42.24 42.24-42.24H512c23.893333-0.426667 42.666667 18.346667 42.666667 41.813334v41.386666c0 23.466667-18.773333 42.24-42.24 42.24z m330.24-136.96c-16.64 16.64-43.52 16.64-60.16 0.426667l-16.64-16.64a41.984 41.984 0 0 1 0-59.733333l0.426666-0.426667c16.64-16.64 43.52-16.64 59.733334 0l16.64 16.64a41.984 41.984 0 0 1 0 59.733333z m-77.226667-644.266666l16.64-16.64a42.496 42.496 0 1 1 60.16 60.16l-16.64 16.64a42.368 42.368 0 0 1-59.733333 0c-17.066667-17.066667-17.066667-43.52-0.426667-60.16zM853.333333 405.76v-0.426667c0-23.466667 18.773333-42.24 42.24-42.24H938.666667c23.466667 0 42.24 18.773333 42.24 42.24v0.426667c0 23.466667-18.773333 42.24-42.24 42.24h-43.093334c-23.466667 0-42.24-18.773333-42.24-42.24zM512 661.333333c-141.226667 0-256-114.773333-256-256s114.773333-256 256-256 256 114.773333 256 256-114.773333 256-256 256z m-0.426667-723.2H512c23.466667 0 42.24 18.773333 42.24 42.24v40.96c0 23.466667-18.773333 42.24-42.24 42.24h-0.426667c-23.466667 0-42.24-18.773333-42.24-42.24v-40.96c0-23.466667 18.773333-42.24 42.24-42.24z m-330.24 136.96c16.64-16.64 43.52-16.64 60.16 0l16.64 16.64a42.368 42.368 0 0 1 0 59.733334l-0.426666 0.426666a42.496 42.496 0 0 1-60.16 0l-16.64-16.64c-16.213333-17.066667-16.213333-43.52 0.426666-60.16z"  horiz-adv-x="1024" />
      
    </font>
</defs>
</svg>
